<svg width="29" height="28" viewBox="0 0 29 28" fill="none" xmlns="http://www.w3.org/2000/svg">
<rect x="0.5" width="28" height="28" rx="14" fill="white" style="fill:white;fill:white;fill-opacity:1;"/>
<path fill-rule="evenodd" clip-rule="evenodd" d="M26.04 14.7615C26.04 13.946 25.9668 13.1619 25.8309 12.4092H15V16.8576H21.1891C20.9225 18.2951 20.1123 19.513 18.8943 20.3285V23.214H22.6109C24.7855 21.2119 26.04 18.2637 26.04 14.7615Z" fill="#4285F4" style="fill:#4285F4;fill:color(display-p3 0.2588 0.5216 0.9569);fill-opacity:1;"/>
<path fill-rule="evenodd" clip-rule="evenodd" d="M14.9999 26.0001C18.1049 26.0001 20.7081 24.9703 22.6108 23.2139L18.8943 20.3285C17.8645 21.0185 16.5472 21.4262 14.9999 21.4262C12.0047 21.4262 9.46948 19.4032 8.56516 16.6851H4.72311V19.6646C6.61539 23.423 10.5045 26.0001 14.9999 26.0001Z" fill="#34A853" style="fill:#34A853;fill:color(display-p3 0.2039 0.6588 0.3255);fill-opacity:1;"/>
<path fill-rule="evenodd" clip-rule="evenodd" d="M8.56523 16.685C8.33523 15.995 8.20455 15.2579 8.20455 14.5C8.20455 13.742 8.33523 13.005 8.56523 12.315V9.33545H4.72318C3.94432 10.8879 3.5 12.6443 3.5 14.5C3.5 16.3557 3.94432 18.112 4.72318 19.6645L8.56523 16.685Z" fill="#FBBC05" style="fill:#FBBC05;fill:color(display-p3 0.9843 0.7373 0.0196);fill-opacity:1;"/>
<path fill-rule="evenodd" clip-rule="evenodd" d="M14.9999 7.57386C16.6883 7.57386 18.2043 8.15409 19.3961 9.29364L22.6945 5.99523C20.7029 4.13955 18.0997 3 14.9999 3C10.5045 3 6.61539 5.57705 4.72311 9.33545L8.56516 12.315C9.46948 9.59682 12.0047 7.57386 14.9999 7.57386Z" fill="#EA4335" style="fill:#EA4335;fill:color(display-p3 0.9176 0.2627 0.2078);fill-opacity:1;"/>
</svg>
