<?xml version="1.0" encoding="iso-8859-1"?>
<!-- Uploaded to: SVG Repo, www.svgrepo.com, Generator: SVG Repo Mixer Tools -->
<svg fill="#000000" height="800px" width="800px" version="1.1" id="Layer_1" xmlns="http://www.w3.org/2000/svg" xmlns:xlink="http://www.w3.org/1999/xlink" 
	 viewBox="0 0 512 512" xml:space="preserve">
<g>
	<g>
		<g>
			<path d="M356.393,131.51H123.582c-4.466,0-8.084,3.618-8.084,8.084v232.812c0,4.466,3.618,8.084,8.084,8.084h42.987
				c4.466,0,8.084-3.619,8.084-8.084c0-4.466-3.618-8.084-8.084-8.084h-34.903V147.678h216.642v216.644H191.361
				c-4.466,0-8.084,3.618-8.084,8.084c0,4.466,3.618,8.084,8.084,8.084h165.031c4.466,0,8.084-3.619,8.084-8.084V139.594
				C364.478,135.128,360.858,131.51,356.393,131.51z"/>
			<path d="M407.819,241.063c11.59,0,21.019-9.429,21.019-21.019v-21c0-11.59-9.429-21.019-21.019-21.019h-11.004V136.36
				c0-18.71-13.891-34.23-31.9-36.805c1.012-2.675,1.57-5.573,1.57-8.598v-0.94c0-11.023-7.354-20.356-17.412-23.363l-5.85-59.362
				C342.814,3.154,339.335,0,335.176,0H144.799c-4.157,0-7.638,3.154-8.045,7.292l-5.85,59.362
				c-10.059,3.007-17.412,12.341-17.412,23.363v0.94c0,3.026,0.558,5.922,1.57,8.598c-18.009,2.575-31.9,18.095-31.9,36.805v239.28
				c0,18.71,13.891,34.23,31.9,36.805c-1.012,2.675-1.57,5.573-1.57,8.598v0.94c0,11.023,7.354,20.356,17.412,23.363l5.85,59.362
				c0.407,4.138,3.887,7.292,8.045,7.292h190.377c4.157,0,7.638-3.154,8.045-7.292l5.85-59.362
				c10.059-3.007,17.412-12.341,17.412-23.363v-0.94c0-3.026-0.558-5.922-1.57-8.598c18.01-2.575,31.9-18.095,31.9-36.805v-40.841
				h11.004c11.59,0,21.019-9.429,21.019-21.019v-20.998c0-11.59-9.429-21.019-21.019-21.019h-11.004v-30.7H407.819z
				 M397.226,194.194h10.591c2.674,0,4.851,2.176,4.851,4.851v20.998c0,2.674-2.176,4.851-4.851,4.851h-10.591V194.194z
				 M129.661,90.017c0-4.53,3.686-8.216,8.217-8.216h0.466c0.015,0,0.029,0,0.044,0h157.531c4.466,0,8.084-3.619,8.084-8.084
				s-3.619-8.084-8.084-8.084H147.252l4.874-49.465H327.85l4.874,49.465H320.35c-4.466,0-8.084,3.619-8.084,8.084
				s3.618,8.084,8.084,8.084h21.261c0.008,0,0.015,0.001,0.023,0.001c0.006,0,0.014-0.001,0.022-0.001h0.443
				c4.53,0,8.217,3.685,8.217,8.216v0.94c0,4.53-3.686,8.216-8.217,8.216H137.877c-4.53,0-8.217-3.685-8.217-8.216V90.017z
				 M327.85,495.832H152.126l-4.873-49.465h185.471L327.85,495.832z M350.315,421.983c0,4.53-3.686,8.216-8.217,8.216h-0.455
				H138.332h-0.455c-4.53,0-8.217-3.685-8.217-8.216v-0.94c0-4.53,3.686-8.216,8.217-8.216h204.221c4.53,0,8.217,3.685,8.217,8.216
				V421.983z M380.646,375.64c0,11.59-9.429,21.019-21.019,21.019h-17.529H137.877h-17.529c-11.59,0-21.019-9.429-21.019-21.019
				V136.36c0-11.59,9.429-21.019,21.019-21.019h17.529h204.221h17.529c11.59,0,21.019,9.429,21.019,21.019V375.64z M397.226,287.93
				h10.591c2.674,0,4.851,2.176,4.851,4.851v20.998c0,2.674-2.176,4.851-4.851,4.851h-10.591V287.93z"/>
			<path d="M166.66,177.587c-1.508-1.508-3.589-2.37-5.713-2.37c-2.133,0-4.215,0.862-5.724,2.37
				c-1.499,1.499-2.371,3.589-2.371,5.714c0,2.133,0.873,4.214,2.371,5.713c1.508,1.508,3.589,2.371,5.724,2.371
				c2.123,0,4.204-0.863,5.713-2.371c1.499-1.499,2.371-3.579,2.371-5.713C169.032,181.177,168.16,179.097,166.66,177.587z"/>
			<path d="M166.66,216.392c-1.508-1.508-3.589-2.37-5.724-2.37c-2.123,0-4.204,0.862-5.713,2.37
				c-1.499,1.499-2.361,3.589-2.361,5.714c0,2.133,0.862,4.214,2.361,5.713c1.508,1.508,3.589,2.371,5.713,2.371
				c2.133,0,4.215-0.863,5.724-2.371c1.499-1.499,2.371-3.589,2.371-5.713C169.032,219.981,168.16,217.891,166.66,216.392z"/>
			<path d="M155.225,254.549c-1.499,1.509-2.371,3.589-2.371,5.724c0,2.125,0.873,4.204,2.371,5.714
				c1.508,1.508,3.589,2.37,5.713,2.37c2.133,0,4.215-0.862,5.724-2.37c1.499-1.509,2.361-3.589,2.361-5.714
				c0-2.133-0.862-4.213-2.361-5.724c-1.509-1.497-3.59-2.361-5.724-2.361C158.814,252.189,156.723,253.052,155.225,254.549z"/>
			<path d="M185.457,192.029h130.425c4.466,0,8.084-3.618,8.084-8.084c0-4.466-3.619-8.084-8.084-8.084H185.457
				c-4.466,0-8.084,3.619-8.084,8.084C177.372,188.411,180.991,192.029,185.457,192.029z"/>
			<path d="M185.457,230.192h130.425c4.466,0,8.084-3.618,8.084-8.084c0-4.466-3.619-8.084-8.084-8.084H185.457
				c-4.466,0-8.084,3.618-8.084,8.084C177.372,226.573,180.991,230.192,185.457,230.192z"/>
			<path d="M185.457,268.354h130.425c4.466,0,8.084-3.618,8.084-8.084c0-4.466-3.619-8.084-8.084-8.084H185.457
				c-4.466,0-8.084,3.619-8.084,8.084C177.372,264.735,180.991,268.354,185.457,268.354z"/>
			<path d="M284.181,346.343c11.59,0,21.019-9.429,21.019-21.019v-14.013c0-11.59-9.429-21.019-21.019-21.019h-88.387
				c-11.59,0-21.019,9.429-21.019,21.019v14.013c0,11.59,9.429,21.019,21.019,21.019H284.181z M190.943,325.324v-14.013
				c0-2.674,2.176-4.851,4.851-4.851h88.387c2.675,0,4.851,2.176,4.851,4.851v14.013c0,2.674-2.175,4.851-4.851,4.851h-88.387
				C193.119,330.174,190.943,327.999,190.943,325.324z"/>
		</g>
	</g>
</g>
</svg>